<?xml version="1.0" encoding="utf-8"?><!-- Uploaded to: SVG Repo, www.svgrepo.com, Generator: SVG Repo Mixer Tools -->
<svg width="800px" height="800px" viewBox="0 -1.02 19.036 19.036" xmlns="http://www.w3.org/2000/svg">
  <path id="Path_11" data-name="Path 11" d="M379.806,829.36c-.678,1.556-1.213,2.66-2.709,2.66h-8.128a2.664,2.664,0,0,1-2.71-2.66l-.316-5.346v-1.722l-2.911-2.589.7-.708,3.158,2.755h.049v2.264h15.125Zm-12.849-4.382.292,4.382a1.874,1.874,0,0,0,1.72,1.633H377.1c.9,0,1.24-.72,1.626-1.633l1.93-4.382Zm2.017,1.013h8.949v1h-8.949ZM375.952,829h-6.978v-1h6.978Zm-7.478,4a1.5,1.5,0,1,1-1.5,1.5A1.5,1.5,0,0,1,368.474,833Zm-.531,1.969h1V834h-1ZM376.474,833a1.5,1.5,0,1,1-1.5,1.5A1.5,1.5,0,0,1,376.474,833Zm-.531,1.969h1V834h-1Z" transform="translate(-363.032 -818.995)" fill="#444"/>
</svg>